<!-- Created with Inkscape (http://www.inkscape.org/) -->

<svg
   xmlns:dc="http://purl.org/dc/elements/1.1/"
   xmlns:cc="http://creativecommons.org/ns#"
   xmlns:rdf="http://www.w3.org/1999/02/22-rdf-syntax-ns#"
   xmlns:svg="http://www.w3.org/2000/svg"
   xmlns="http://www.w3.org/2000/svg"
   xmlns:sodipodi="http://sodipodi.sourceforge.net/DTD/sodipodi-0.dtd"
   xmlns:inkscape="http://www.inkscape.org/namespaces/inkscape"
   version="1.1"
   width="50"
   height="50"
   id="svg6396"
   inkscape:version="0.48.4 r9939"
   sodipodi:docname="buy.svg">
  <sodipodi:namedview
     pagecolor="#ffffff"
     bordercolor="#666666"
     borderopacity="1"
     objecttolerance="10"
     gridtolerance="10"
     guidetolerance="10"
     inkscape:pageopacity="0"
     inkscape:pageshadow="2"
     inkscape:window-width="1914"
     inkscape:window-height="1073"
     id="namedview3716"
     showgrid="false"
     inkscape:zoom="9.44"
     inkscape:cx="17.318753"
     inkscape:cy="22.480075"
     inkscape:window-x="675"
     inkscape:window-y="223"
     inkscape:window-maximized="0"
     inkscape:current-layer="layer17" />
  <defs
     id="defs6398" />
  <metadata
     id="metadata6401">
    <rdf:RDF>
      <cc:Work
         rdf:about="">
        <dc:format>image/svg+xml</dc:format>
        <dc:type
           rdf:resource="http://purl.org/dc/dcmitype/StillImage" />
        <dc:title></dc:title>
      </cc:Work>
    </rdf:RDF>
  </metadata>
  <g
     inkscape:groupmode="layer"
     id="layer11"
     inkscape:label="Layer2"
     style="opacity:0.64081576;display:none">
    <rect
       style="fill:#0000ff;fill-rule:evenodd;stroke:#000000;stroke-width:1px;stroke-linecap:butt;stroke-linejoin:miter;stroke-opacity:1"
       id="rect3720"
       width="76.483047"
       height="74.152542"
       x="-10.593221"
       y="-7.8389831" />
  </g>
  <g
     transform="translate(0,-14)"
     id="layer1"
     style="opacity:0;display:inline">
    <rect
       width="50"
       height="50"
       x="0.18181957"
       y="13.999995"
       id="rect6572"
       style="fill:#0000ff;fill-opacity:1" />
  </g>
  <g
     transform="translate(0,-21)"
     id="layer3"
     style="display:none">
    <path
       d="m 36.545455,15.363636 c -11.045,0 -20,9.077113 -20,20.272727 0,11.197302 8.955,20.272727 20,20.272727 11.045,0 20,-9.075425 20,-20.272727 0,-11.195614 -8.955,-20.272727 -20,-20.272727 z m 0,5.068181 c 2.761666,0 5,2.268857 5,5.068182 0,2.799326 -2.238334,5.068182 -5,5.068182 -2.761667,0 -5,-2.268856 -5,-5.068182 0,-2.799325 2.238333,-5.068182 5,-5.068182 z m 6.666666,30.409091 H 29.878788 v -1.689393 h 1.666667 V 35.636363 h -1.666667 v -1.689394 h 11.666667 v 15.204546 h 1.666666 v 1.689393 z"
       id="path5351"
       style="fill:#ffffff;fill-opacity:1;fill-rule:evenodd" />
  </g>
  <g
     transform="translate(0,-21)"
     id="layer2"
     style="display:none">
    <path
       d="M 11.459605,54.292016 C 9.6534044,58.541729 8.8083182,59.943596 5.1630737,59.722841 17.150792,65.534392 20.034144,56.990812 20.034144,56.990812 l -3.355162,-3.835755 c 0,0 -3.587225,-0.943744 -5.219377,1.136959 z M 44.723291,32.331318 c -0.948839,-1.084756 -2.779487,-0.456015 -2.779487,-0.456015 -2.61754,0.355866 -18.065185,13.72406 -18.065185,13.72406 l 4.697223,5.370067 c 0,0 15.494616,-13.314498 16.214362,-15.838423 0,0 0.881927,-1.714939 -0.06691,-2.799689 z m -26.470172,19.466025 3.355159,3.835753 5.393431,-3.305965 -4.697226,-5.370062 -4.051364,4.840274 z"
       id="path5199"
       style="fill:#ffffff;fill-opacity:1;fill-rule:evenodd;display:inline" />
  </g>
  <g
     transform="translate(0,-21)"
     id="layer4"
     style="display:none">
    <path
       d="m 16.545455,15.727273 v 10.909091 h 2.222223 c 0,-1.818182 0,-5.454545 2.222221,-7.272727 2.217778,-1.821818 4.444445,-1.818182 6.666666,-1.818182 h 4.444445 v 30.909091 c 0,2.727272 -1.111111,5.454545 -4.444445,5.454545 l -2.173333,0.0036 -0.04889,1.814625 h 22.222222 v -1.818182 h -2.222222 c -3.333334,0 -4.444444,-2.727273 -4.444444,-5.454545 V 17.545455 h 4.444444 c 2.222222,0 4.444444,0 6.666666,1.818182 2.222222,1.818182 2.222222,5.454545 2.222222,7.272727 h 2.222222 V 15.727273 h -40 z"
       id="path4981"
       style="fill:#ffffff;fill-opacity:1;fill-rule:evenodd" />
  </g>
  <g
     transform="translate(0,-21)"
     id="layer5"
     style="display:none">
    <path
       d="M 43.090909,26.272727 37.636363,37.181818 34,33.545454 30.363636,37.181818 26.727273,33.545454 23.090909,44.454545 H 48.545454 L 43.090909,26.272727 z M 15.818182,15.363636 v 40 h 40 v -40 h -40 z M 52.181817,48.090908 H 19.454546 V 19 H 52.181817 V 48.090908 z M 26.727273,29.90909 c 2.007273,0 3.636363,-1.62909 3.636363,-3.636363 0,-2.007273 -1.62909,-3.636364 -3.636363,-3.636364 -2.007272,0 -3.636364,1.629091 -3.636364,3.636364 0,2.007273 1.629092,3.636363 3.636364,3.636363 z"
       id="path5221"
       style="fill:#ffffff;fill-opacity:1;fill-rule:evenodd" />
  </g>
  <g
     transform="translate(0,-21)"
     id="layer6"
     style="display:none">
    <path
       d="m 37.636363,16.090909 c -11.045,0 -20,8.955 -20,20 0,11.045 8.955,20 20,20 11.046666,0 20,-8.955 20,-20 0,-11.045 -8.953334,-20 -20,-20 z m 0,36.666666 c -9.203334,0 -16.666666,-7.461666 -16.666666,-16.666666 0,-9.205 7.463332,-16.666666 16.666666,-16.666666 9.203334,0 16.666666,7.461666 16.666666,16.666666 0,9.205 -7.463332,16.666666 -16.666666,16.666666 z M 39.30303,22.757576 h -3.333334 v 13.333333 l 7.5,7.5 2.5,-2.5 -6.666666,-6.666667 V 22.757576 z"
       id="path5083"
       style="fill:#ffffff;fill-opacity:1;fill-rule:evenodd" />
  </g>
  <g
     transform="translate(0,-21)"
     id="layer7"
     style="display:none">
    <path
       d="m 12.727273,33.690909 v 2.618182 c 11.590909,15.709091 34.772727,15.709091 46.363636,0 V 33.690909 C 47.5,17.981818 24.318182,17.981818 12.727273,33.690909 z m 23.181818,11.781818 c -6.40108,0 -11.590909,-4.689163 -11.590909,-10.472727 0,-5.783564 5.189829,-10.472727 11.590909,-10.472727 C 42.31017,24.527273 47.5,29.216436 47.5,35 c 0,5.783564 -5.18983,10.472727 -11.590909,10.472727 z m 0,-16.363636 c 0,-0.679418 0.15213,-1.320873 0.388295,-1.928291 -0.131847,-0.0052 -0.255,-0.03535 -0.388295,-0.03535 -4.800086,0 -8.693182,3.517528 -8.693182,7.854546 0,4.337018 3.891648,7.854545 8.693182,7.854545 4.801534,0 8.693182,-3.517527 8.693182,-7.854545 0,-0.120436 -0.03187,-0.231709 -0.03912,-0.349527 -0.67227,0.210763 -1.382214,0.349527 -2.134174,0.349527 -3.600426,0 -6.519886,-2.637818 -6.519886,-5.890909 z"
       id="path5297"
       style="fill:#ffffff;fill-opacity:1;fill-rule:evenodd" />
  </g>
  <g
     transform="translate(0,-21)"
     id="layer8"
     style="display:none">
    <polygon
       points="8,14 26,14 26,10 8,10 16,2 10,2 0,12 10,22 16,22 "
       transform="matrix(1.7202797,0,0,1.5636364,2.454546,26.6)"
       id="polygon4849"
       style="fill:#ffffff;fill-opacity:1;fill-rule:evenodd" />
  </g>
  <g
     inkscape:groupmode="layer"
     id="layer10"
     inkscape:label="Layer"
     style="display:none" />
  <g
     inkscape:groupmode="layer"
     id="layer12"
     inkscape:label="loading"
     style="display:none">
    <path
       style="fill:#ffffff;fill-opacity:1;fill-rule:evenodd;display:inline"
       inkscape:connector-curvature="0"
       clip-rule="evenodd"
       d="M 39.825734,11.840933 C 36.169067,7.7142662 30.844066,5.1059332 24.894066,5.1059332 c -11.044998,0 -19.9999988,8.9549988 -19.9999988,19.9999988 h 4.999999 c 0,-8.285 6.7150008,-14.999999 14.9999998,-14.999999 4.568335,0 8.621667,2.073333 11.368336,5.298333 l -4.701668,4.701666 H 44.894068 V 6.7725992 l -5.068334,5.0683338 z m -14.931668,28.265 c -4.568332,0 -8.621666,-2.073333 -11.368332,-5.298335 l 4.701667,-4.701665 H 4.8940672 v 13.333333 l 5.068334,-5.068333 c 3.6566668,4.126665 8.9816648,6.734999 14.9316648,6.734999 11.045001,0 20.000002,-8.954999 20.000002,-20 h -5.000002 c 0,8.285 -6.714998,15.000001 -15,15.000001 z"
       id="path42" />
  </g>
  <g
     inkscape:groupmode="layer"
     id="layer14"
     inkscape:label="trash"
     style="display:none">
    <polygon
       style="fill:#ffffff;fill-opacity:1;fill-rule:evenodd"
       transform="matrix(1.5,0,0,1.5,-66.5,-713)"
       clip-rule="evenodd"
       points="61,489 54,482 51,485 58,492 51,499 54,502 61,495 68,502 71,499 64,492 71,485 68,482 "
       id="polygon368" />
  </g>
  <g
     inkscape:groupmode="layer"
     id="layer17"
     inkscape:label="buy">
    <path
       style="fill:#ffffff;fill-opacity:1;fill-rule:evenodd"
       inkscape:connector-curvature="0"
       clip-rule="evenodd"
       d="m 33.93182,21.249995 -5,-11.2499998 h -2.5 l 5,11.2499998 h 2.5 z m -10,-11.2499998 h -2.5 L 16.431821,21.249995 h 2.499999 l 5,-11.2499998 z M 12.681819,37.499995 c 0,1.38 1.120001,2.5 2.5,2.5 H 35.18182 c 1.38,0 2.5,-1.12 2.5,-2.5 l 1.25,-11.25 h -27.5 l 1.249999,11.25 z m 18.750001,-8.75 h 2.5 l -1.25,8.75 h -2.5 l 1.25,-8.75 z m -7.5,0 h 2.5 v 8.75 h -2.5 v -8.75 z m -5,0 1.25,8.75 h -2.5 l -1.249999,-8.75 h 2.499999 z m 20,-6.25 h -27.5 c -0.691251,0 -1.25,0.55875 -1.25,1.25 v 1.25 h 30 v -1.25 c 0,-0.69125 -0.55875,-1.25 -1.25,-1.25 z"
       id="path502" />
  </g>
</svg>
